# xmcd
#
# Track frame offsets:
#	150
#	12584
#	25571
#	38856
#	51224
#	63697
#	75512
#	87851
#	101182
#	120137
#	136685
#	146792
#
# Disc length: 2121 seconds
#
# Revision: 0
# Processed by: cddbd v1.5.1PL0 Copyright (c) Steve Scherf et al.
# Submitted via: dBpowerAMP V4.0
#
DISCID=9708470c
DTITLE=Os Atuais - Os Atuais
DYEAR=1900
DGENRE=Other
TTITLE0=Gosto Que Me Enrosco
TTITLE1=Camiseta Branca
TTITLE2=Mulher De Amigo
TTITLE3=Tá Com Medo Tabaréu "Melô Da Pipa"
TTITLE4=Onde Andará Você
TTITLE5=Tô Quebrando O Galho
TTITLE6=Peluquera
TTITLE7=Volte Amor
TTITLE8=Colado Em Você
TTITLE9=Escravo Do Amor
TTITLE10=Não Dá Pra Cochilar
TTITLE11=As Namoradas
EXTD=
EXTT0=
EXTT1=
EXTT2=
EXTT3=
EXTT4=
EXTT5=
EXTT6=
EXTT7=
EXTT8=
EXTT9=
EXTT10=
EXTT11=
PLAYORDER=
